# xmcd
#
# Track frame offsets:
#	150
#	16020
#	31883
#
# Disc length: 635 seconds
#
# Revision: 1
# Processed by: cddbd v1.5PL3 Copyright (c) Steve Scherf et al.
# Submitted via: BCDEx v0.0.8beta
#
DISCID=13027903
DTITLE=間寛平 with TDD - Go! Go! たま
DTITLE=ご丼
DYEAR=2003
DGENRE=Jpop
TTITLE0=間寛平 with TDD (TAMAGO-DON DE
TTITLE0=PARTMENT) - Go! Go! たまご丼
TTITLE1=間寛平 - Go! Go! たまご丼 〜ソ
TTITLE1=ロ・バージョン〜
TTITLE2=Go! Go! たまご丼 ＜オリジナル・
TTITLE2=カラオケ＞
EXTD=
EXTT0=
EXTT1=
EXTT2=
PLAYORDER=
